<svg width="262" height="61" viewBox="0 0 262 61" fill="none" xmlns="http://www.w3.org/2000/svg">
<g clip-path="url(#clip0_54_157)">
<path d="M101.439 45.4085C101.439 46.6829 101.59 47.7216 101.892 48.5246C102.194 49.3277 102.721 49.9473 103.475 50.3838C103.493 50.4711 103.503 50.6194 103.503 50.8289V51.2217C103.503 53.6132 102.749 55.4811 101.242 56.8252C99.735 58.1693 97.7846 58.8414 95.3912 58.8414C93.0179 58.8414 91.1051 58.2393 89.6546 57.0348C87.9397 55.6382 87.0823 53.4998 87.0823 50.6194V42.345C87.0823 41.1754 86.668 40.5906 85.8385 40.5906C85.5184 40.5906 85.2637 40.6602 85.0753 40.7999L85.5847 44.7016V50.6194C85.5847 52.9936 86.0086 54.7915 86.8564 56.0136C85.9519 56.9038 84.8215 57.6021 83.4643 58.1084C82.1272 58.5972 80.7608 58.8414 79.3665 58.8414C77.1055 58.8414 75.3533 58.3352 74.1098 57.3227C72.6024 56.1008 71.8488 54.1719 71.8488 51.5359V42.345C71.8488 41.1754 71.4342 40.5906 70.6051 40.5906C70.285 40.5906 70.0305 40.6602 69.8421 40.7999L70.3507 44.7016V51.6406C70.3507 53.5958 70.6335 55.1058 71.1987 56.1707C69.3522 57.9338 66.7615 58.8153 63.4265 58.8153C61.4481 58.8153 59.7806 58.3528 58.4241 57.4276C56.86 56.3627 56.0782 54.9312 56.0782 53.1331V40.6167C54.9664 39.1679 54.4106 37.3871 54.4106 35.2749C54.4106 33.1452 54.9664 31.3035 56.0782 29.7499H62.8895C64.2273 29.7499 65.3671 30.2125 66.3093 31.1377C65.4803 31.8534 65.0657 32.4469 65.0657 32.9183C65.0657 33.4595 65.3955 33.73 66.0549 33.73C66.8839 32.4033 68.0239 31.3471 69.4747 30.5617C71.1703 29.6713 73.1582 29.2262 75.4381 29.2262C77.1716 29.2262 78.6884 29.5666 79.9884 30.2473C81.3074 30.9282 82.2868 31.7138 82.9279 32.604C83.8132 31.4868 84.9628 30.6489 86.3758 30.0903C87.8081 29.5141 89.296 29.2262 90.8417 29.2262C94.2521 29.2262 96.8994 30.2038 98.7834 32.1589C100.63 34.114 101.553 36.7936 101.553 40.1978L101.439 45.4085ZM119.047 43.7851V48.3674C119.18 48.4897 119.396 48.5508 119.698 48.5508C119.999 48.5508 120.216 48.4547 120.348 48.2627C120.479 48.0708 120.546 47.7391 120.546 47.2677V43.5233C120.546 41.8475 120.47 40.7388 120.32 40.1978C120.169 39.6391 119.886 39.3598 119.471 39.3598C119.208 39.3598 118.982 39.4471 118.793 39.6216C118.962 41.3499 119.047 42.7377 119.047 43.7851ZM108.477 55.3851C105.387 52.6269 103.842 48.8912 103.842 44.1778C103.842 39.4471 105.293 35.7201 108.195 32.9968C111.115 30.2561 114.94 28.8858 119.669 28.8858C124.398 28.8858 128.223 30.3085 131.144 33.1539C134.045 35.9994 135.497 39.7089 135.497 44.2826C135.497 48.8388 134.093 52.4611 131.285 55.1494C128.497 57.8377 124.7 59.182 119.895 59.182C115.091 59.182 111.284 57.9162 108.477 55.3851ZM145.36 58.7107C143.118 58.7107 141.328 58.3352 139.989 57.5845C138.502 56.7991 137.756 55.6382 137.756 54.1021V40.6167C136.645 39.1679 136.09 37.3871 136.09 35.2749C136.09 33.1452 136.645 31.3035 137.756 29.7499H142.082C144.304 29.7499 145.896 30.4132 146.857 31.74C146.387 32.2287 145.972 32.8485 145.614 33.599C145.257 34.3497 145.077 34.891 145.077 35.2226C145.077 35.5368 145.163 35.7724 145.332 35.9296C145.52 36.0866 145.784 36.1652 146.124 36.1652C146.782 33.7387 148.035 31.9582 149.881 30.8234C151.408 29.8634 153.293 29.3833 155.535 29.3833C158.324 29.3833 160.509 29.9331 162.092 31.033C162.656 32.4295 162.94 34.1403 162.94 36.1652C162.94 38.1728 162.505 39.9971 161.639 41.6379C160.999 41.9522 160.114 42.2227 158.982 42.4496C157.852 42.6591 156.712 42.764 155.563 42.764C154.414 42.764 153.377 42.6941 152.455 42.5544C151.55 42.3972 150.891 42.2576 150.474 42.1354C150.324 42.2751 150.249 42.4758 150.249 42.7377C150.249 42.9995 150.428 43.2003 150.786 43.3399C151.164 43.4622 151.785 43.6019 152.652 43.7588V56.9038C150.597 58.1084 148.166 58.7107 145.36 58.7107ZM180.405 59.182C175.186 59.182 171.07 57.8377 168.055 55.1494C164.964 52.4436 163.42 48.7428 163.42 44.047C163.42 39.3337 165.012 35.5979 168.197 32.8397C171.136 30.2736 174.856 28.9904 179.359 28.9904C183.863 28.9904 187.471 30.1427 190.185 32.4469C192.916 34.7338 194.282 37.553 194.282 40.9047C194.282 43.8898 193.162 46.1418 190.92 47.6605C188.847 49.0919 186.021 49.8077 182.44 49.8077C179.765 49.8077 177.504 49.2926 175.658 48.2627C175.508 48.3674 175.432 48.5595 175.432 48.8388C175.432 49.3625 176.176 49.8426 177.664 50.279C179.153 50.7504 180.84 50.986 182.724 50.986C184.627 50.986 186.35 50.7677 187.896 50.3314C189.46 49.8774 190.711 49.345 191.653 48.7341C192.106 49.1007 192.464 49.7814 192.729 50.7765C193.011 51.7542 193.153 52.6532 193.153 53.4735C193.153 54.2766 193.067 54.9924 192.898 55.6208C191.428 56.7729 189.921 57.5935 188.376 58.0821C186.19 58.8153 183.533 59.182 180.405 59.182ZM180.038 41.4547C180.98 41.4547 181.452 41.123 181.452 40.4596C181.452 39.8312 180.953 39.5169 179.954 39.5169C178.955 39.5169 178.38 40.0145 178.229 41.0095C178.758 41.3062 179.359 41.4547 180.038 41.4547ZM210.28 26.7649V45.1729C210.28 47.7739 210.957 49.4674 212.314 50.2528C212.333 50.3401 212.342 50.506 212.342 50.7504V51.2217C212.342 53.7179 211.655 55.6121 210.28 56.9038C208.923 58.1956 206.991 58.8414 204.486 58.8414C201.98 58.8414 199.991 58.1956 198.522 56.9038C196.77 55.3676 195.893 53.0459 195.893 49.9386V22.7323C197.872 21.615 200.133 21.0565 202.677 21.0565C205.238 21.0565 207.143 21.5627 208.386 22.5752C209.648 23.5702 210.28 24.9667 210.28 26.7649ZM228.028 26.7649V45.1729C228.028 47.7739 228.707 49.4674 230.062 50.2528C230.081 50.3401 230.091 50.506 230.091 50.7504V51.2217C230.091 53.7179 229.404 55.6121 228.028 56.9038C226.672 58.1956 224.74 58.8414 222.234 58.8414C219.729 58.8414 217.741 58.1956 216.27 56.9038C214.518 55.3676 213.643 53.0459 213.643 49.9386V22.7323C215.621 21.615 217.882 21.0565 220.425 21.0565C222.988 21.0565 224.891 21.5627 226.136 22.5752C227.397 23.5702 228.028 24.9667 228.028 26.7649ZM259.937 45.4085C259.937 46.6654 260.087 47.678 260.388 48.446C260.691 49.2142 261.218 49.8164 261.971 50.2528C261.99 50.3401 262 50.506 262 50.7504V51.2217C262 53.7005 261.19 55.6294 259.569 57.0087C258.137 58.2305 256.367 58.8414 254.255 58.8414C252.825 58.8414 251.515 58.5273 250.327 57.8989C249.141 57.2704 248.293 56.3627 247.784 55.1756C247.143 55.1756 246.822 55.4636 246.822 56.0397C246.822 56.5285 247.152 57.0783 247.812 57.6894C246.588 58.4575 244.741 58.8414 242.273 58.8414C238.786 58.8414 235.999 57.9687 233.907 56.223C231.834 54.4599 230.798 52.0073 230.798 48.8649C230.798 45.7054 231.9 43.2614 234.104 41.5332C236.122 39.9795 238.731 39.2027 241.934 39.2027C243.026 39.2027 244.082 39.2726 245.099 39.4123C245.777 39.5344 246.146 39.6042 246.201 39.6216C246.258 39.4471 246.286 39.2987 246.286 39.1765C246.286 38.7226 245.872 38.4172 245.042 38.26C244.213 38.103 243.129 38.0244 241.792 38.0244C238.948 38.0244 236.516 38.5567 234.5 39.6216C233.577 38.1728 233.116 36.3398 233.116 34.1227C233.116 32.8658 233.285 31.932 233.624 31.321C234.981 30.7449 236.704 30.2386 238.797 29.8022C240.888 29.3483 243.092 29.1215 245.41 29.1215C250.195 29.1215 253.813 30.0903 256.262 32.0279C258.713 33.9657 259.937 36.7151 259.937 40.2763V45.4085ZM245.268 46.6915C244.477 46.6915 244.082 47.0232 244.082 47.6866C244.082 48.3151 244.543 48.6294 245.466 48.6294C246.107 48.6294 246.578 48.4897 246.88 48.2105C247.181 47.9136 247.332 47.4074 247.332 46.6915C247.332 46.6915 246.644 46.6915 245.268 46.6915Z" fill="white"/>
<path d="M33.1963 28.2386C33.3729 28.5089 33.7101 28.7007 34.2078 28.8141C34.7054 28.9273 35.1551 28.9291 35.5568 28.8192C35.889 24.523 36.0242 21.9652 35.9622 21.1458C35.8487 20.2859 35.4698 19.7825 34.8259 19.6361C34.533 19.5694 34.1602 19.5708 33.7072 19.6401L33.1963 28.2386ZM21.2642 38.4649C20.8706 38.778 20.6308 39.0973 20.5445 39.4228C20.3358 40.2094 20.95 41.0539 22.3871 41.9563C23.8605 42.8382 25.7211 43.607 27.9686 44.2624C27.3132 48.2548 27.1333 50.5723 27.4286 51.2148C26.6061 52.0917 24.7994 52.759 22.0082 53.2165C19.2244 53.6469 16.2516 53.5022 13.0899 52.7824C8.90333 51.8293 5.53634 50.1856 2.98918 47.8513C0.44894 45.4898 -0.472205 42.9935 0.225551 40.3625C0.412509 39.6572 0.651279 39.05 0.941378 38.5409L20.5677 1.93738C23.2766 1.08721 26.3603 0.63877 29.8186 0.591957C33.2767 0.545144 36.7624 0.921601 40.2755 1.72133C45.3109 2.86779 49.4059 4.63416 52.5604 7.02043C56.155 9.73699 57.9418 12.8906 57.9208 16.4809L57.7578 57.1271C53.742 60.0957 48.2942 60.7972 41.4144 59.2306C38.0769 58.4708 35.3991 57.2716 33.3814 55.6331C31.3634 53.9945 30.4376 52.1011 30.6037 49.9531L30.9541 44.7694C32.7178 45.1422 34.4984 45.2168 36.2963 44.9934C38.0939 44.7699 39.0791 44.3327 39.2517 43.6817C39.3669 43.2476 39.2701 42.8517 38.9614 42.4938C37.6547 42.9729 36.1459 43.2191 34.4351 43.2322C32.7241 43.2454 31.1807 43.0954 29.8048 42.7822C25.8525 41.8823 23.0056 40.4434 21.2642 38.4649Z" fill="#FAD3D9"/>
<path d="M178.964 0.359741L194.657 11.8714C196.976 10.9298 199.249 10.7556 201.475 11.3488C203.699 11.9418 205.252 13.2745 206.132 15.3471C206.731 16.7564 206.78 18.2058 206.284 19.6956C205.786 21.1852 204.89 22.4371 203.596 23.451C204.067 26.1832 203.464 28.8038 201.791 31.3126C200.116 33.8215 197.704 35.6503 194.551 36.7991C191.399 37.9479 188.288 38.1325 185.217 37.3531C182.148 36.5736 179.78 35.0353 178.115 32.7383C176.422 32.8129 174.847 32.4619 173.386 31.6857C171.926 30.9095 170.897 29.8167 170.3 28.4074C169.419 26.335 169.601 24.3703 170.842 22.5135C172.084 20.6568 173.817 19.3707 176.043 18.6556L178.964 0.359741ZM196.761 14.9334C196.263 15.1148 195.802 15.3622 195.381 15.6758C194.958 15.9893 194.619 16.3844 194.361 16.8611L193.654 18.172L192.078 17.9804C191.216 17.8476 190.339 17.8325 189.444 17.9353C188.548 18.0382 187.67 18.2468 186.807 18.5613C185.945 18.8757 185.148 19.2778 184.418 19.7674C183.686 20.2572 183.055 20.8224 182.523 21.4633L181.51 22.5981L180.029 22.0853C179.488 21.8988 178.95 21.8241 178.411 21.8613C177.871 21.8986 177.352 22.0078 176.854 22.1892C175.76 22.5882 174.959 23.2545 174.455 24.1882C173.952 25.1217 173.893 26.0445 174.28 26.9563C174.632 27.7854 175.256 28.3957 176.15 28.7878C177.044 29.1797 178.019 29.2634 179.073 29.0387L180.636 28.6604L181.298 29.9505C182.274 31.7967 183.903 33.0617 186.185 33.7454C188.469 34.4292 190.789 34.3417 193.143 33.4831C195.499 32.6245 197.261 31.2246 198.428 29.2831C199.596 27.3417 199.859 25.3874 199.215 23.4203L198.751 22.0577L200.139 21.2649C201.064 20.7362 201.718 20.0667 202.103 19.2567C202.487 18.4467 202.502 17.6272 202.15 16.7982C201.763 15.8862 201.042 15.2478 199.986 14.8825C198.931 14.5173 197.856 14.5343 196.761 14.9334ZM182.027 7.57196L180.348 18.2355C181.003 17.6136 181.761 17.0505 182.618 16.546C183.477 16.0416 184.404 15.6081 185.4 15.2453C186.296 14.9189 187.235 14.6722 188.217 14.5053C189.2 14.3386 190.194 14.2638 191.196 14.2811L182.027 7.57196Z" fill="#FAD3D9"/>
</g>
<defs>
<clipPath id="clip0_54_157">
<rect width="262" height="61" fill="white"/>
</clipPath>
</defs>
</svg>
