<svg width="58" height="55" viewBox="0 0 58 55" fill="none" xmlns="http://www.w3.org/2000/svg">
<path d="M40.0002 27.5L56.489 12.3265C58.5124 10.4645 58.5124 7.44555 56.489 5.58203L52.8245 2.2098C50.8011 0.347792 47.5205 0.347792 45.4954 2.2098L29.0066 17.3833L12.5178 2.2098C10.4944 0.347792 7.21375 0.347792 5.18869 2.2098L1.52415 5.58203C-0.49926 7.44403 -0.49926 10.463 1.52415 12.3265L18.013 27.5L1.52415 42.6735C-0.49926 44.5355 -0.49926 47.5545 1.52415 49.418L5.18869 52.7902C7.2121 54.6522 10.4944 54.6522 12.5178 52.7902L29.0066 37.6167L45.4954 52.7902C47.5188 54.6522 50.8011 54.6522 52.8245 52.7902L56.489 49.418C58.5124 47.556 58.5124 44.5371 56.489 42.6735L40.0002 27.5Z" fill="white"/>
</svg>
