<svg width="70" height="53" viewBox="0 0 70 53" fill="none" xmlns="http://www.w3.org/2000/svg">
<path d="M68.0612 17.5384C68.5868 17.1123 69.3684 17.5109 69.3684 18.1844V46.2926C69.3684 49.9349 66.4709 52.8901 62.8997 52.8901H6.83716C3.26587 52.8901 0.368408 49.9349 0.368408 46.2926V18.1982C0.368408 17.5109 1.13657 17.1261 1.67563 17.5522C4.69438 19.9437 8.69692 22.9814 22.443 33.1663C25.2866 35.283 30.0842 39.7363 34.8684 39.7088C39.6795 39.75 44.5715 35.2005 47.3073 33.1663C61.0534 22.9814 65.0424 19.93 68.0612 17.5384ZM34.8684 35.2967C37.995 35.3517 42.4961 31.2832 44.7602 29.6064C62.6436 16.3701 64.0047 15.2155 68.1286 11.9168C68.9102 11.2983 69.3684 10.3361 69.3684 9.31901V6.70749C69.3684 3.06512 66.4709 0.109985 62.8997 0.109985H6.83716C3.26587 0.109985 0.368408 3.06512 0.368408 6.70749V9.31901C0.368408 10.3361 0.826611 11.2845 1.60825 11.9168C5.73208 15.2018 7.09321 16.3701 24.9766 29.6064C27.2407 31.2832 31.7418 35.3517 34.8684 35.2967Z" fill="white"/>
</svg>
