<svg width="53" height="53" viewBox="0 0 53 53" fill="none" xmlns="http://www.w3.org/2000/svg">
<path d="M47.0555 0.152588H5.65246C4.15509 0.152588 2.71904 0.747419 1.66023 1.80623C0.601423 2.86503 0.0065918 4.30108 0.0065918 5.79846L0.0065918 47.2015C0.0065918 48.6989 0.601423 50.1349 1.66023 51.1938C2.71904 52.2526 4.15509 52.8474 5.65246 52.8474H21.7961V34.9323H14.3859V26.5H21.7961V20.0731C21.7961 12.7629 26.1482 8.7249 32.8138 8.7249C36.0061 8.7249 39.3442 9.2942 39.3442 9.2942V16.4692H35.6662C32.0422 16.4692 30.9119 18.7181 30.9119 21.0247V26.5H39.0019L37.7081 34.9323H30.9119V52.8474H47.0555C48.5529 52.8474 49.9889 52.2526 51.0478 51.1938C52.1066 50.1349 52.7014 48.6989 52.7014 47.2015V5.79846C52.7014 4.30108 52.1066 2.86503 51.0478 1.80623C49.9889 0.747419 48.5529 0.152588 47.0555 0.152588Z" fill="white"/>
</svg>
