<svg width="95" height="65" viewBox="0 0 95 65" fill="none" xmlns="http://www.w3.org/2000/svg">
<path d="M33.1963 31.7153C33.3729 31.9937 33.7101 32.1913 34.2078 32.308C34.7054 32.4246 35.1552 32.4264 35.5569 32.3133C35.8891 27.8882 36.0242 25.2537 35.9622 24.4097C35.8487 23.524 35.4699 23.0055 34.8259 22.8547C34.533 22.786 34.1602 22.7874 33.7073 22.8589L33.1963 31.7153ZM21.2643 42.2484C20.8706 42.5708 20.6308 42.8997 20.5445 43.235C20.3358 44.0452 20.95 44.915 22.3872 45.8445C23.8605 46.7528 25.7211 47.5447 27.9686 48.2197C27.3133 52.3319 27.1333 54.719 27.4286 55.3807C26.6061 56.284 24.7995 56.9713 22.0082 57.4425C19.2244 57.8858 16.2516 57.7368 13.0899 56.9954C8.90333 56.0137 5.53634 54.3207 2.98918 51.9163C0.44894 49.484 -0.472205 46.9128 0.225551 44.2028C0.41251 43.4764 0.651279 42.851 0.941378 42.3267L20.5677 4.62501C23.2766 3.74934 26.3603 3.28745 29.8186 3.23923C33.2767 3.19101 36.7624 3.57876 40.2755 4.40248C45.3109 5.58334 49.4059 7.4027 52.5604 9.86055C56.155 12.6586 57.9419 15.9068 57.9208 19.6048L57.7579 61.4704C53.742 64.528 48.2942 65.2506 41.4144 63.6371C38.0769 62.8545 35.3991 61.6193 33.3814 59.9316C31.3634 58.2439 30.4376 56.2936 30.6037 54.0812L30.9541 48.742C32.7178 49.1259 34.4984 49.2028 36.2963 48.9727C38.0939 48.7425 39.0791 48.2922 39.2517 47.6216C39.367 47.1745 39.2701 46.7668 38.9614 46.3981C37.6547 46.8917 36.1459 47.1452 34.4351 47.1587C32.7241 47.1723 31.1807 47.0177 29.8049 46.6951C25.8525 45.7683 23.0056 44.2862 21.2643 42.2484Z" fill="#FAD3D9"/>
<path d="M67.2116 0L82.9046 11.857C85.2241 10.8872 87.4974 10.7078 89.7226 11.3187C91.9469 11.9295 93.5002 13.3022 94.3798 15.4369C94.9786 16.8885 95.0276 18.3815 94.5316 19.9159C94.0337 21.4502 93.1379 22.7397 91.844 23.784C92.315 26.5982 91.7123 29.2974 90.0388 31.8815C88.3644 34.4656 85.9517 36.3493 82.7989 37.5325C79.647 38.7158 76.5365 38.9059 73.4653 38.1032C70.3961 37.3003 68.0277 35.7158 66.3628 33.3499C64.6701 33.4267 63.0946 33.0652 61.6345 32.2658C60.1744 31.4663 59.145 30.3407 58.548 28.8891C57.6666 26.7545 57.8492 24.7309 59.0902 22.8184C60.3321 20.906 62.0652 19.5813 64.2914 18.8447L67.2116 0ZM85.0087 15.0108C84.5108 15.1977 84.0504 15.4525 83.6294 15.7755C83.2064 16.0984 82.8671 16.5054 82.6095 16.9964L81.9021 18.3466L80.3256 18.1493C79.4644 18.0125 78.5868 17.997 77.6919 18.1029C76.796 18.2088 75.9184 18.4237 75.0552 18.7476C74.193 19.0714 73.3961 19.4856 72.6656 19.9899C71.9341 20.4943 71.3035 21.0765 70.771 21.7366L69.7579 22.9055L68.2766 22.3773C67.7364 22.1852 67.1981 22.1083 66.6589 22.1466C66.1187 22.185 65.5996 22.2975 65.1017 22.4844C64.0078 22.8953 63.2071 23.5816 62.7034 24.5433C62.1997 25.5048 62.1411 26.4552 62.5285 27.3944C62.8803 28.2484 63.5041 28.877 64.3981 29.2809C65.292 29.6846 66.2667 29.7708 67.3212 29.5394L68.8841 29.1497L69.5464 30.4785C70.5221 32.3801 72.1513 33.683 74.4333 34.3873C76.7172 35.0916 79.0366 35.0015 81.3907 34.1171C83.7467 33.2327 85.5095 31.7908 86.6765 29.7911C87.8444 27.7914 88.1068 25.7785 87.4627 23.7524L86.9994 22.3489L88.3875 21.5323C89.3122 20.9877 89.9658 20.2982 90.3512 19.4639C90.7348 18.6295 90.7502 17.7854 90.3983 16.9316C90.011 15.9923 89.29 15.3347 88.2337 14.9585C87.1792 14.5823 86.1036 14.5998 85.0087 15.0108ZM70.275 7.42859L68.5958 18.412C69.2513 17.7715 70.0088 17.1915 70.8662 16.6718C71.7246 16.1524 72.6521 15.7058 73.648 15.3322C74.5438 14.9959 75.483 14.7418 76.4653 14.57C77.4477 14.3982 78.4416 14.3211 79.4442 14.339L70.275 7.42859Z" fill="#FAD3D9"/>
</svg>
