<svg width="63" height="55" viewBox="0 0 63 55" fill="none" xmlns="http://www.w3.org/2000/svg">
<path d="M3.19182 10.7104H60.7633C61.9862 10.7104 62.9775 9.74053 62.9775 8.544V3.12801C62.9775 1.93148 61.9862 0.961609 60.7633 0.961609H3.19182C1.96885 0.961609 0.977539 1.93148 0.977539 3.12801V8.544C0.977539 9.74053 1.96885 10.7104 3.19182 10.7104ZM3.19182 32.3744H60.7633C61.9862 32.3744 62.9775 31.4045 62.9775 30.208V24.792C62.9775 23.5955 61.9862 22.6256 60.7633 22.6256H3.19182C1.96885 22.6256 0.977539 23.5955 0.977539 24.792V30.208C0.977539 31.4045 1.96885 32.3744 3.19182 32.3744ZM3.19182 54.0384H60.7633C61.9862 54.0384 62.9775 53.0685 62.9775 51.872V46.456C62.9775 45.2594 61.9862 44.2896 60.7633 44.2896H3.19182C1.96885 44.2896 0.977539 45.2594 0.977539 46.456V51.872C0.977539 53.0685 1.96885 54.0384 3.19182 54.0384Z" fill="white"/>
</svg>
