<svg width="58" height="53" viewBox="0 0 58 53" fill="none" xmlns="http://www.w3.org/2000/svg">
<path d="M29.1869 20.226C27.8311 20.2265 26.5058 20.5948 25.3787 21.2845C24.2517 21.9742 23.3733 22.9542 22.8548 24.1007C22.3363 25.2471 22.2009 26.5085 22.4658 27.7254C22.7306 28.9423 23.3837 30.06 24.3426 30.9372C25.3015 31.8144 26.5231 32.4117 27.8529 32.6536C29.1828 32.8955 30.5611 32.7711 31.8137 32.2962C33.0663 31.8212 34.1368 31.0171 34.89 29.9854C35.6432 28.9537 36.0453 27.7408 36.0453 26.5C36.0439 24.836 35.3208 23.2406 34.0348 22.0642C32.7489 20.8878 31.0052 20.2266 29.1869 20.226ZM45.2159 15.4035C44.8669 14.5941 44.3398 13.8589 43.6675 13.2436C42.9951 12.6283 42.1918 12.146 41.3073 11.8266C38.6082 10.8515 32.1817 11.0703 29.1869 11.0703C26.1922 11.0703 19.7721 10.8433 17.0653 11.8266C16.1808 12.146 15.3774 12.6283 14.7051 13.2436C14.0327 13.8589 13.5057 14.5941 13.1567 15.4035C12.0925 17.8736 12.3302 23.7606 12.3302 26.4988C12.3302 29.2371 12.0925 35.117 13.1618 37.5953C13.5108 38.4047 14.0379 39.1399 14.7102 39.7552C15.3826 40.3705 16.1859 40.8528 17.0704 41.1722C19.7695 42.1473 26.196 41.9285 29.1921 41.9285C32.1881 41.9285 38.6056 42.1555 41.3124 41.1722C42.1969 40.8528 43.0002 40.3705 43.6726 39.7552C44.345 39.1399 44.872 38.4047 45.221 37.5953C46.2942 35.1252 46.0475 29.2382 46.0475 26.5C46.0475 23.7617 46.2942 17.883 45.221 15.4047L45.2159 15.4035ZM29.1869 36.145C27.1024 36.145 25.0647 35.5793 23.3315 34.5195C21.5983 33.4597 20.2474 31.9534 19.4497 30.191C18.652 28.4286 18.4433 26.4893 18.85 24.6183C19.2567 22.7474 20.2604 21.0288 21.7344 19.6799C23.2084 18.331 25.0863 17.4124 27.1308 17.0403C29.1752 16.6681 31.2944 16.8591 33.2202 17.5891C35.146 18.3192 36.7921 19.5554 37.9501 21.1415C39.1082 22.7276 39.7264 24.5924 39.7264 26.5C39.7281 27.767 39.4566 29.0219 38.9275 30.1928C38.3985 31.3637 37.6222 32.4276 36.6432 33.3235C35.6642 34.2194 34.5017 34.9298 33.2222 35.414C31.9427 35.8981 30.5715 36.1466 29.1869 36.145ZM40.1608 18.7016C39.6742 18.7019 39.1984 18.57 38.7937 18.3228C38.389 18.0756 38.0735 17.724 37.8871 17.3127C37.7007 16.9013 37.6518 16.4486 37.7466 16.0119C37.8413 15.5751 38.0755 15.1738 38.4195 14.8588C38.7635 14.5439 39.2019 14.3294 39.6791 14.2424C40.1563 14.1554 40.651 14.1999 41.1006 14.3703C41.5502 14.5407 41.9345 14.8292 42.2049 15.1995C42.4753 15.5697 42.6196 16.005 42.6196 16.4503C42.6209 16.7461 42.5585 17.0391 42.4358 17.3127C42.3131 17.5863 42.1326 17.835 41.9046 18.0446C41.6767 18.2542 41.4057 18.4205 41.1074 18.5341C40.809 18.6476 40.4891 18.7062 40.1659 18.7063L40.1608 18.7016ZM51.8082 0.152588H6.56567C4.92944 0.152588 3.36022 0.747419 2.20322 1.80623C1.04623 2.86503 0.39624 4.30108 0.39624 5.79846L0.39624 47.2015C0.39624 48.6989 1.04623 50.1349 2.20322 51.1938C3.36022 52.2526 4.92944 52.8474 6.56567 52.8474H51.8082C53.4444 52.8474 55.0136 52.2526 56.1706 51.1938C57.3276 50.1349 57.9776 48.6989 57.9776 47.2015V5.79846C57.9776 4.30108 57.3276 2.86503 56.1706 1.80623C55.0136 0.747419 53.4444 0.152588 51.8082 0.152588ZM49.6077 34.2631C49.4419 37.2777 48.69 39.9489 46.2852 42.1438C43.8804 44.3386 40.9641 45.0408 37.6737 45.1843C34.2793 45.3596 24.1023 45.3596 20.7078 45.1843C17.4136 45.0326 14.505 44.3433 12.0963 42.1438C9.68766 39.9442 8.93062 37.2718 8.77381 34.2631C8.5823 31.1555 8.5823 21.841 8.77381 18.7369C8.93962 15.7223 9.68252 13.0511 12.0963 10.8562C14.5101 8.66139 17.4264 7.96742 20.7078 7.82392C24.1023 7.64866 34.2793 7.64866 37.6737 7.82392C40.968 7.97565 43.8856 8.66492 46.2852 10.8645C48.6849 13.064 49.4509 15.7364 49.6077 18.751C49.7992 21.8468 49.7992 31.1531 49.6077 34.2631Z" fill="white"/>
</svg>
