<svg width="45" height="61" viewBox="0 0 45 61" fill="none" xmlns="http://www.w3.org/2000/svg">
<path d="M22.9758 0.5C10.848 0.5 0.977544 10.3744 0.977539 22.5021C0.977531 43.8417 21.7374 60.0644 21.7374 60.0644C22.4667 60.6452 23.5005 60.6452 24.2298 60.0644C24.2298 60.0644 44.9936 43.8417 44.9935 22.5021C44.9935 10.3744 35.1035 0.5 22.9758 0.5ZM22.9758 12.5051C28.4754 12.5051 32.9884 17.0025 32.9885 22.5021C32.9885 28.0019 28.4755 32.5109 22.9758 32.5109C17.4761 32.5109 12.9787 28.0019 12.9787 22.5021C12.9787 17.0025 17.4761 12.5051 22.9758 12.5051Z" fill="white"/>
</svg>
