<svg width="62" height="55" viewBox="0 0 62 55" fill="none" xmlns="http://www.w3.org/2000/svg">
<path d="M59.6288 38.5288L46.2848 33.525C45.7148 33.3124 45.0812 33.2676 44.4796 33.3974C43.8779 33.5271 43.3407 33.8243 42.9488 34.2443L37.0393 40.5616C27.765 36.7356 20.3012 30.205 15.9284 22.0902L23.1485 16.9195C23.6294 16.5773 23.9699 16.1072 24.1182 15.5805C24.2665 15.0538 24.2147 14.4992 23.9706 14.0006L18.2517 2.32497C17.9838 1.78748 17.5099 1.34864 16.9118 1.08412C16.3137 0.819595 15.6288 0.74597 14.9753 0.875939L2.58446 3.37786C1.9544 3.50517 1.39226 3.81557 0.989779 4.25842C0.587303 4.70126 0.368263 5.2504 0.368408 5.81619C0.368408 32.5555 25.1382 54.1867 55.6506 54.1867C56.2975 54.1871 56.9253 53.9955 57.4317 53.6433C57.9381 53.2912 58.293 52.7992 58.4386 52.2477L61.298 41.406C61.4456 40.8315 61.3596 40.2298 61.055 39.7047C60.7503 39.1795 60.246 38.7637 59.6288 38.5288Z" fill="white"/>
</svg>
