<svg width="633" height="453" viewBox="0 0 633 453" fill="none" xmlns="http://www.w3.org/2000/svg">
<path d="M256.06 42.5541C276.804 -13.5789 356.196 -13.5789 376.94 42.554L379.356 49.0918C390.488 79.2168 424.119 94.406 454.08 82.841L533.984 51.9986C574.821 36.2357 607.61 88.1105 576.158 118.556C552.226 141.721 565.39 182.37 598.384 186.926C644.365 193.275 644.365 259.725 598.384 266.074C565.39 270.63 552.226 311.279 576.158 334.444C607.61 364.89 574.821 416.764 533.984 401.001L454.08 370.159C424.119 358.594 390.488 373.783 379.356 403.908L376.94 410.446C356.196 466.579 276.804 466.579 256.06 410.446L253.644 403.908C242.512 373.783 208.881 358.594 178.92 370.159L99.0159 401.001C58.1785 416.764 25.3897 364.89 56.8419 334.444C80.7739 311.279 67.6097 270.63 34.6155 266.074C-11.365 259.725 -11.365 193.275 34.6155 186.926C67.6097 182.37 80.7739 141.721 56.8419 118.556C25.3897 88.1105 58.1785 36.2357 99.0159 51.9986L178.92 82.841C208.881 94.406 242.512 79.2168 253.644 49.0918L256.06 42.5541Z" fill="#EB5B98"/>
</svg>
