<svg width="20" height="20" viewBox="0 0 20 20" fill="none" xmlns="http://www.w3.org/2000/svg">
<g clip-path="url(#clip0_124_375)">
<path fill-rule="evenodd" clip-rule="evenodd" d="M10.6005 0.394605L13.1673 5.84417C13.2617 6.05002 13.4524 6.19527 13.676 6.23141L19.4155 7.10529C19.675 7.15561 19.8858 7.34454 19.964 7.59699C20.0423 7.84943 19.9754 8.12447 19.7899 8.31276L15.6368 12.5546C15.4764 12.7209 15.4043 12.9534 15.4425 13.1812L16.4229 19.1709C16.4764 19.4284 16.3772 19.6937 16.168 19.853C15.9587 20.0123 15.6766 20.0372 15.4427 19.9171L10.3091 17.0892C10.1135 16.9808 9.87588 16.9808 9.68031 17.0892L4.54672 19.9171C4.31277 20.0372 4.03063 20.0123 3.82139 19.853C3.61214 19.6937 3.51299 19.4284 3.56648 19.1709L4.5469 13.1812C4.58505 12.9534 4.51297 12.7209 4.3526 12.5546L0.199448 8.31276C0.0139759 8.12447 -0.0529168 7.84944 0.025363 7.597C0.103643 7.34456 0.314409 7.15563 0.573872 7.10531L6.31339 6.23142C6.53693 6.19527 6.72772 6.05003 6.82207 5.84417L9.38886 0.394605C9.49488 0.154733 9.73243 0 9.99469 0C10.2569 0 10.4945 0.154733 10.6005 0.394605Z" fill="#EB5B98"/>
<path fill-rule="evenodd" clip-rule="evenodd" d="M12.543 4.52068C10.8875 5.40587 9.35881 6.51005 7.99817 7.80344C6.54799 9.19173 5.31778 10.7929 4.34989 12.5517L0.198197 8.31379C0.012733 8.12538 -0.0539797 7.8502 0.0246186 7.59778C0.103217 7.34536 0.314366 7.15669 0.574004 7.10689L6.31198 6.23103C6.53522 6.19395 6.72599 6.04958 6.82233 5.84482L9.38782 0.393097C9.49499 0.153926 9.73263 0 9.99472 0C10.2568 0 10.4944 0.153926 10.6016 0.393097L12.543 4.52068Z" fill="#EB5B98"/>
</g>
<defs>
<clipPath id="clip0_124_375">
<rect width="20" height="20" fill="white" transform="translate(-0.0078125)"/>
</clipPath>
</defs>
</svg>
