<svg width="54" height="53" viewBox="0 0 54 53" fill="none" xmlns="http://www.w3.org/2000/svg">
<path d="M47.7503 0.152588H6.34729C3.2303 0.152588 0.701416 2.68147 0.701416 5.79846V47.2015C0.701416 50.3185 3.2303 52.8474 6.34729 52.8474H47.7503C50.8673 52.8474 53.3962 50.3185 53.3962 47.2015V5.79846C53.3962 2.68147 50.8673 0.152588 47.7503 0.152588ZM41.9986 18.831C42.0221 19.1604 42.0221 19.5015 42.0221 19.8308C42.0221 30.0287 34.2591 41.7791 20.0738 41.7791C15.6983 41.7791 11.6403 40.5088 8.22924 38.321C8.85264 38.3916 9.45252 38.4151 10.0877 38.4151C13.6987 38.4151 17.0156 37.1919 19.6621 35.1217C16.2746 35.0511 13.4282 32.8281 12.4519 29.7699C13.6399 29.9463 14.7102 29.9463 15.9335 29.6287C12.4048 28.9112 9.75834 25.806 9.75834 22.0539V21.9598C10.7816 22.5361 11.9814 22.889 13.24 22.936C12.1819 22.2322 11.3145 21.2774 10.7152 20.1568C10.1159 19.0362 9.8033 17.7846 9.80538 16.5139C9.80538 15.0789 10.1818 13.7615 10.8522 12.6206C14.6514 17.3019 20.3561 20.3601 26.7548 20.6894C25.6609 15.4553 29.5777 11.2091 34.2826 11.2091C36.5056 11.2091 38.5052 12.1383 39.9167 13.6439C41.6575 13.3145 43.3277 12.6676 44.8098 11.7854C44.2334 13.5733 43.0219 15.0789 41.4223 16.0316C42.9749 15.8669 44.4804 15.4317 45.8684 14.8319C44.8215 16.3727 43.5042 17.7371 41.9986 18.831Z" fill="white"/>
</svg>
